ffmpeg version 3.4.8-0ubuntu0.2 Copyright (c) 2000-2020 the FFmpeg developers
  built with gcc 7 (Ubuntu 7.5.0-3ubuntu1~18.04)
  configuration: --prefix=/usr --extra-version=0ubuntu0.2 --toolchain=hardened --libdir=/usr/lib/x86_64-linux-gnu --incdir=/usr/include/x86_64-linux-gnu --enable-gpl --disable-stripping --enable-avresample --enable-avisynth --enable-gnutls --enable-ladspa --enable-libass --enable-libbluray --enable-libbs2b --enable-libcaca --enable-libcdio --enable-libflite --enable-libfontconfig --enable-libfreetype --enable-libfribidi --enable-libgme --enable-libgsm --enable-libmp3lame --enable-libmysofa --enable-libopenjpeg --enable-libopenmpt --enable-libopus --enable-libpulse --enable-librubberband --enable-librsvg --enable-libshine --enable-libsnappy --enable-libsoxr --enable-libspeex --enable-libssh --enable-libtheora --enable-libtwolame --enable-libvorbis --enable-libvpx --enable-libwavpack --enable-libwebp --enable-libx265 --enable-libxml2 --enable-libxvid --enable-libzmq --enable-libzvbi --enable-omx --enable-openal --enable-opengl --enable-sdl2 --enable-libdc1394 --enable-libdrm --enable-libiec61883 --enable-chromaprint --enable-frei0r --enable-libopencv --enable-libx264 --enable-shared
  libavutil      55. 78.100 / 55. 78.100
  libavcodec     57.107.100 / 57.107.100
  libavformat    57. 83.100 / 57. 83.100
  libavdevice    57. 10.100 / 57. 10.100
  libavfilter     6.107.100 /  6.107.100
  libavresample   3.  7.  0 /  3.  7.  0
  libswscale      4.  8.100 /  4.  8.100
  libswresample   2.  9.100 /  2.  9.100
  libpostproc    54.  7.100 / 54.  7.100
[rawvideo @ 0x55fdf3713a20] Estimating duration from bitrate, this may be inaccurate
Input #0, rawvideo, from '../../SVC-Encoder-20220109T061506Z-001/SVC-Encoder/Dataset/RollerCoaster/ERP_8x8/tile_yuv/Tile_46_480x240.yuv':
  Duration: 00:00:10.00, start: 0.000000, bitrate: 41472 kb/s
    Stream #0:0: Video: rawvideo (I420 / 0x30323449), yuv420p, 480x240, 41472 kb/s, 30 tbr, 30 tbn, 30 tbc
Stream mapping:
  Stream #0:0 -> #0:0 (rawvideo (native) -> h264 (libx264))
Press [q] to stop, [?] for help
[libx264 @ 0x55fdf3720c60] using cpu capabilities: MMX2 SSE2Fast LZCNT SSSE3 SSE4.2 AVX
[libx264 @ 0x55fdf3720c60] profile High, level 2.1
Output #0, rawvideo, to 'RollerCoaster_Tile_46_480x240_x264_QP_20.h264':
  Metadata:
    encoder         : Lavf57.83.100
    Stream #0:0: Video: h264 (libx264), yuv420p, 480x240, q=-1--1, 30 fps, 30 tbn, 30 tbc
    Metadata:
      encoder         : Lavc57.107.100 libx264
    Side data:
      cpb: bitrate max/min/avg: 0/0/0 buffer size: 0 vbv_delay: -1
frame=  118 fps=0.0 q=26.0 PSNR=Y:nan U:nan V:nan *:nan size=     183kB time=00:00:02.50 bitrate= 599.3kbits/s speed=4.97x    frame=  212 fps=211 q=26.0 PSNR=Y:nan U:nan V:nan *:nan size=     256kB time=00:00:05.63 bitrate= 372.3kbits/s speed= 5.6x    frame=  300 fps=190 q=26.0 LPSNR=Y:inf U:inf V:inf *:inf size=     671kB time=00:00:09.93 bitrate= 553.8kbits/s speed=6.28x    
video:671kB audio:0kB subtitle:0kB other streams:0kB global headers:0kB muxing overhead: 0.000000%
[libx264 @ 0x55fdf3720c60] frame I:2     Avg QP:18.93  size: 20546  PSNR Mean Y:46.81 U:49.18 V:50.21 Avg:47.57 Global:47.57
[libx264 @ 0x55fdf3720c60] frame P:77    Avg QP:20.87  size:  5897  PSNR Mean Y:43.88 U:48.42 V:49.32 Avg:45.00 Global:44.92
[libx264 @ 0x55fdf3720c60] frame B:221   Avg QP:25.47  size:   871  PSNR Mean Y:43.26 U:48.17 V:49.14 Avg:44.43 Global:44.33
[libx264 @ 0x55fdf3720c60] consecutive B-frames:  1.0%  2.0%  1.0% 96.0%
[libx264 @ 0x55fdf3720c60] mb I  I16..4:  5.4% 75.0% 19.6%
[libx264 @ 0x55fdf3720c60] mb P  I16..4:  1.0%  3.4%  1.6%  P16..4: 38.3% 30.3% 16.1%  0.0%  0.0%    skip: 9.5%
[libx264 @ 0x55fdf3720c60] mb B  I16..4:  0.0%  0.1%  0.0%  B16..8: 48.1% 10.0%  1.8%  direct: 0.7%  skip:39.1%  L0:42.4% L1:48.7% BI: 8.9%
[libx264 @ 0x55fdf3720c60] 8x8 transform intra:62.9% inter:65.5%
[libx264 @ 0x55fdf3720c60] coded y,uvDC,uvAC intra: 76.2% 90.4% 67.5% inter: 20.1% 18.0% 0.5%
[libx264 @ 0x55fdf3720c60] i16 v,h,dc,p:  9% 52% 16% 23%
[libx264 @ 0x55fdf3720c60] i8 v,h,dc,ddl,ddr,vr,hd,vl,hu:  5% 25% 13%  3% 17%  8%  8%  3% 17%
[libx264 @ 0x55fdf3720c60] i4 v,h,dc,ddl,ddr,vr,hd,vl,hu:  9% 25% 15%  3% 16% 10%  7%  3% 13%
[libx264 @ 0x55fdf3720c60] i8c dc,h,v,p: 36% 38%  8% 17%
[libx264 @ 0x55fdf3720c60] Weighted P-Frames: Y:0.0% UV:0.0%
[libx264 @ 0x55fdf3720c60] ref P L0: 60.9% 16.3% 16.3%  6.5%
[libx264 @ 0x55fdf3720c60] ref B L0: 90.3%  8.4%  1.3%
[libx264 @ 0x55fdf3720c60] ref B L1: 96.0%  4.0%
[libx264 @ 0x55fdf3720c60] PSNR Mean Y:43.446 U:48.243 V:49.195 Avg:44.598 Global:44.486 kb/s:550.07
